<?xml version="1.0" encoding="UTF-8" standalone="no"?>
<!-- Created with Inkscape (http://www.inkscape.org/) -->

<svg
   width="32"
   height="32"
   viewBox="0 0 32 32"
   version="1.1"
   id="svg5"
   xml:space="preserve"
   xmlns="http://www.w3.org/2000/svg"
   xmlns:svg="http://www.w3.org/2000/svg"><defs
     id="defs2" /><g
     id="layer1"><g
       style="fill:#000000"
       id="g72"
       transform="matrix(0.27666329,0,0,0.27666329,1.4748116,3.1320103)"><g
         id="SVGRepo_bgCarrier"
         stroke-width="0" /><g
         id="SVGRepo_tracerCarrier"
         stroke-linecap="round"
         stroke-linejoin="round" /><g
         id="SVGRepo_iconCarrier"><!-- Uploaded to: SVG Repo, www.svgrepo.com, Transformed by: SVG Repo Mixer Tools --><title
           id="title35">19-multimeda-pic-picture-collection</title><desc
           id="desc37">Created with Sketch.</desc><defs
           id="defs39" /><g
           id="3.Multimedia"
           stroke="none"
           stroke-width="1"
           fill="none"
           fill-rule="evenodd"
           stroke-linecap="round"
           stroke-linejoin="round"><g
             id="Multimedia-(Color)"
             transform="translate(-1698,-305)"
             stroke="#263238"
             stroke-width="3.5"><g
               id="19-multimeda-pic-picture-collection"
               transform="translate(1700,307)"><polygon
                 id="Layer-1"
                 fill="#9ac5f4"
                 points="80,90 80,20 4.2632564e-14,20 4.2632564e-14,90 " /><polygon
                 id="Layer-2"
                 fill="#7be380"
                 points="80,89.486328 36.029073,89.486328 11.575806,63.965941 50.242992,29.486328 80,60.541908 " /><polygon
                 id="Layer-3"
                 fill="#7be380"
                 points="36.454748,89.90767 -1.3296017e-07,51.886347 6.9174195e-07,89.907669 " /><path
                 d="m 17,43 c -3.313709,0 -6,-2.686292 -6,-6 0,-3.313708 2.686291,-6 6,-6 3.313708,0 6,2.686292 6,6 0,3.313708 -2.686292,6 -6,6 z"
                 id="Layer-4"
                 fill="#f7e07e" /><polygon
                 id="Layer-5"
                 fill="#d7ebf9"
                 points="80,20 80,80 90,80 90,15 90,10 10,10 10,20 " /><polygon
                 id="Layer-6"
                 fill="#d7ebf9"
                 points="90,10 90,70 100,70 100,5 100,0 20,0 20,10 " /></g></g></g></g></g></g></svg>
