<!DOCTYPE svg PUBLIC "-//W3C//DTD SVG 1.1//EN" "http://www.w3.org/Graphics/SVG/1.1/DTD/svg11.dtd">

<!-- Uploaded to: SVG Repo, www.svgrepo.com, Transformed by: SVG Repo Mixer Tools -->
<svg viewBox="-102.4 -102.4 1228.80 1228.80" class="icon" style="vertical-align: middle;fill: #000000;overflow: hidden;" version="1.1" xmlns="http://www.w3.org/2000/svg" fill="#000000" transform="matrix(1, 0, 0, 1, 0, 0)">

<g id="SVGRepo_bgCarrier" stroke-width="0">

<path transform="translate(-102.4, -102.4), scale(38.4)" d="M16,29.506855978685266C18.732554294127578,29.20920779505707,19.761562096958347,25.778389624080216,21.660617227491354,23.791171210626757C23.127732282017888,22.255945611256397,24.9359967216511,21.117310238232875,25.849352857017664,19.200248738392887C26.86569898504192,17.067019478631263,27.475321477748935,14.728099955484767,27.08926173296946,12.396880446276372C26.660187500186975,9.805918203029467,25.747700018206523,7.050397758285748,23.589474231015025,5.553984882549059C21.445141538820298,4.067204829457888,18.60824039476356,4.632212270610767,16,4.708104722201824C13.477069298621231,4.7815149019177685,10.788033382765816,4.532712445626247,8.72477068383159,5.986505901943939C6.64882334718666,7.449237068088454,6.074624836783368,10.120668673146023,5.031976110934343,12.436273009689526C3.834799880493433,15.095065373875645,1.2542832865466953,17.725566350557422,2.1965127692641655,20.485024877965486C3.1398043233968904,23.247593838741743,6.922874254739243,23.533257951133606,9.366421387183816,25.130337670704435C11.639500386310573,26.61600100098605,13.300441539877795,29.800910034255295,16,29.506855978685266" fill="#7ed0ec" strokewidth="0"/>

</g>

<g id="SVGRepo_tracerCarrier" stroke-linecap="round" stroke-linejoin="round"/>

<g id="SVGRepo_iconCarrier">

<path d="M852.4288 876.6976H230.3488c-53.3504 0-96.5632-43.2128-96.5632-96.5632V293.9392c0-53.3504 43.2128-96.5632 96.5632-96.5632h622.08c53.3504 0 96.5632 43.2128 96.5632 96.5632v486.1952c0 53.3504-43.2128 96.5632-96.5632 96.5632z" fill="#76BFFF"/>

<path d="M948.992 620.1856V297.0624c0-53.248-41.7792-96.6144-94.3104-99.4304 12.9536 18.7392 26.88 46.6944 26.88 80.3328v342.2208h67.4304z" fill="#659CF8"/>

<path d="M67.5328 431.1552c-8.4992 0-15.36-6.8608-15.36-15.36v-27.5968c0-8.4992 6.8608-15.36 15.36-15.36s15.36 6.8608 15.36 15.36v27.5968c0 8.4992-6.8608 15.36-15.36 15.36z" fill="#333333"/>

<path d="M948.992 773.6832v-223.0272L238.6944 843.6736c18.8416 20.3264 45.7216 33.0752 75.6224 33.0752h531.6608c56.8832-0.0512 103.0144-46.1824 103.0144-103.0656z" fill="#F58200"/>

<path d="M948.992 550.656l-67.4304 27.8016v153.0368c0 38.4512-6.0928 125.5424-66.816 139.7248 7.6288 2.048 14.8992 3.84 22.016 5.4784h9.216c56.9344 0 103.0656-46.1312 103.0656-103.0656v-222.976z" fill="#F46800"/>

<path d="M662.2208 359.2192m-70.4 0a70.4 70.4 0 1 0 140.8 0 70.4 70.4 0 1 0-140.8 0Z" fill="#ECD300"/>

<path d="M679.168 290.9696c6.6048 15.7184 13.568 40.3456 7.68 65.792-9.3184 40.192-45.1584 54.1696-72.96 53.5552 12.5952 11.9296 29.5936 19.3024 48.3328 19.3024 38.8608 0 70.4-31.5392 70.4-70.4 0-33.024-22.784-60.6208-53.4528-68.2496z" fill="#E8A200"/>

<path d="M648.8576 451.3792c-55.9616 0-101.4784-45.5168-101.4784-101.4784s45.5168-101.4784 101.4784-101.4784 101.4784 45.5168 101.4784 101.4784-45.5168 101.4784-101.4784 101.4784z m0-172.1856c-39.0144 0-70.7584 31.744-70.7584 70.7584s31.744 70.7584 70.7584 70.7584 70.7584-31.744 70.7584-70.7584-31.744-70.7584-70.7584-70.7584z" fill="#333333"/>

<path d="M379.5968 526.6432L133.7856 656.384V768c0 60.0576 34.1504 108.7488 95.8464 108.7488h551.1168l-343.4496-341.6064c-15.1552-15.0528-38.656-18.4832-57.7024-8.4992z" fill="#ECD300"/>

<path d="M780.7488 876.6976l-343.4496-341.6064c-15.104-15.0528-38.656-18.4832-57.6512-8.448l-27.136 14.336 321.3312 335.7184h106.9056z" fill="#E8A200"/>

<path d="M830.208 126.8224H186.3168c-73.984 0-134.144 60.16-134.144 134.144v30.0544c0 8.4992 6.8608 15.36 15.36 15.36s15.36-6.8608 15.36-15.36v-30.0544c0-57.0368 46.3872-103.424 103.424-103.424h643.8912c57.0368 0 103.424 46.3872 103.424 103.424v215.9104l-372.4288 153.6512-148.1216-151.3472c-21.3504-21.8112-55.04-26.88-81.8688-12.3392l-248.32 134.5536V479.1808c0-8.4992-6.8608-15.36-15.36-15.36s-15.36 6.8608-15.36 15.36V757.9136c0 73.984 60.16 134.144 134.144 134.144H830.2592c73.984 0 134.144-60.16 134.144-134.144V260.9152c-0.0512-73.9328-60.2112-134.0928-134.1952-134.0928zM190.6688 861.3376c-3.5328 0-7.0144-0.2048-10.4448-0.512-0.3072-0.0512-0.6144-0.0512-0.9728-0.1024-3.0208-0.3072-5.9904-0.8192-8.9088-1.3824l-2.4576-0.4608c-2.5088-0.5632-4.9664-1.1776-7.3728-1.8944l-3.1232-0.9216c-2.304-0.768-4.5568-1.5872-6.8096-2.5088-0.9728-0.3584-1.8944-0.768-2.8672-1.1776-2.3552-1.024-4.7104-2.1504-7.0144-3.3792-0.768-0.4096-1.5872-0.8192-2.3552-1.2288-2.4576-1.3824-4.8128-2.816-7.1168-4.352-0.512-0.3584-1.024-0.6656-1.4848-1.024-2.5088-1.7408-4.9664-3.5328-7.2704-5.4784l-0.7168-0.5632c-2.5088-2.0992-4.9664-4.3008-7.2704-6.6048 0-0.0512-0.0512-0.0512-0.0512-0.1024a107.34592 107.34592 0 0 1-31.5392-76.1344v-117.248l262.9632-142.4896c14.848-8.0384 33.4848-5.2224 45.312 6.8096l139.4176 142.4384 23.1936 23.6544 190.464 194.56H190.6688z m596.5312 0l-202.8032-207.2064 349.2864-144.0768v243.5072c0 59.4432-48.3328 107.776-107.776 107.776h-38.7072z" fill="#333333"/>

<path d="M201.5232 474.1632a12.8 12.8 0 0 1-12.8-12.8v-15.2064a12.8 12.8 0 0 1 25.6 0v15.2064a12.8 12.8 0 0 1-12.8 12.8zM201.5232 417.1776a12.8 12.8 0 0 1-12.8-12.8V299.6224c0-29.696 24.1664-53.8624 53.8624-53.8624h40.0896a12.8 12.8 0 0 1 0 25.6h-40.0896c-15.5648 0-28.2624 12.6976-28.2624 28.2624v104.7552c0 7.1168-5.7344 12.8-12.8 12.8zM615.5264 352.1536c-1.0752 0-2.2016-0.1536-3.2768-0.4096a12.84096 12.84096 0 0 1-9.1136-15.6672c5.9392-22.3232 21.3504-29.8496 23.0912-30.6176 6.4512-2.9184 14.0288 0 16.896 6.4512 2.8672 6.3488 0.1024 13.7728-6.144 16.7936-0.6144 0.3584-6.4512 3.84-9.1648 13.9776-1.4336 5.6832-6.656 9.472-12.288 9.472zM201.5232 780.8a12.8 12.8 0 0 1-12.8-12.8v-86.0672a12.8 12.8 0 0 1 25.6 0V768a12.8 12.8 0 0 1-12.8 12.8z" fill="#FFFFFF"/>

</g>

</svg>