<!DOCTYPE svg PUBLIC "-//W3C//DTD SVG 1.1//EN" "http://www.w3.org/Graphics/SVG/1.1/DTD/svg11.dtd">

<!-- Uploaded to: SVG Repo, www.svgrepo.com, Transformed by: SVG Repo Mixer Tools -->
<svg viewBox="0 0 1024 1024" class="icon" version="1.1" xmlns="http://www.w3.org/2000/svg" fill="#000000" stroke="#000000">

<g id="SVGRepo_bgCarrier" stroke-width="0"/>

<g id="SVGRepo_tracerCarrier" stroke-linecap="round" stroke-linejoin="round"/>

<g id="SVGRepo_iconCarrier">

<path d="M512 1024C229.7 1024 0 794.3 0 512S229.7 0 512 0s512 229.7 512 512-229.7 512-512 512z m0-938.7C276.7 85.3 85.3 276.7 85.3 512S276.7 938.7 512 938.7 938.7 747.3 938.7 512 747.3 85.3 512 85.3z" fill="#7ed0ec"/>

<path d="M469.3 704c-10.9 0-21.8-4.2-30.2-12.5-16.7-16.7-16.7-43.7 0-60.3L558.3 512 439.2 392.8c-16.7-16.7-16.7-43.7 0-60.3 16.7-16.7 43.7-16.7 60.3 0l149.3 149.3c16.7 16.7 16.7 43.7 0 60.3L499.5 691.5c-8.3 8.3-19.3 12.5-30.2 12.5z" fill="#5F6379"/>

</g>

</svg>