<!DOCTYPE svg PUBLIC "-//W3C//DTD SVG 1.1//EN" "http://www.w3.org/Graphics/SVG/1.1/DTD/svg11.dtd">

<!-- Uploaded to: SVG Repo, www.svgrepo.com, Transformed by: SVG Repo Mixer Tools -->
<svg version="1.1" id="Layer_1" xmlns="http://www.w3.org/2000/svg" xmlns:xlink="http://www.w3.org/1999/xlink" viewBox="0 0 512 512" xml:space="preserve" fill="#000000" stroke="#000000">

<g id="SVGRepo_bgCarrier" stroke-width="0"/>

<g id="SVGRepo_tracerCarrier" stroke-linecap="round" stroke-linejoin="round"/>

<g id="SVGRepo_iconCarrier"> <path style="fill:#7ed0ec;" d="M0,256.006C0,397.402,114.606,512.004,255.996,512C397.394,512.004,512,397.402,512,256.006 C512.009,114.61,397.394,0,255.996,0C114.606,0,0,114.614,0,256.006z"/> <path style="fill:#7ebce1;" d="M512,256.005c0-1.715-87.286-92.274-87.286-92.274c-16.865-16.865-33.731-33.728-50.596-50.593 c-2.761-2.763-7.234-2.763-9.998,0c0,0-171.748,171.742-171.749,171.742c-14.386-14.183-28.574-28.574-42.859-42.86l-1.632-1.632 c-2.763-2.762-7.237-2.762-9.998,0l-49.489,49.489c-2.762,2.762-2.762,7.235,0,9.998l208.33,208.338l0.448,0.448 C418.981,488.966,512,383.38,512,256.005z"/> <path style="fill:#F4F6F9;" d="M423.607,162.627l-49.489-49.489c-2.762-2.762-7.235-2.762-9.997,0L192.37,284.88l-44.491-44.491 c-2.762-2.762-7.235-2.762-9.997,0l-49.489,49.489c-2.762,2.762-2.762,7.235,0,9.997l98.979,98.986 c1.326,1.326,3.121,2.071,4.998,2.071c1.878,0,3.673-0.746,4.998-2.071l226.238-226.238 C426.369,169.862,426.369,165.389,423.607,162.627z M192.37,383.867l-88.981-88.989l39.492-39.492l44.491,44.491 c2.762,2.762,7.235,2.762,9.997,0l171.749-171.743l39.492,39.492L192.37,383.867z"/> </g>

</svg>